<?xml version="1.0" encoding="UTF-8" standalone="no"?>
<svg
   version="1.0"
   width="860.000000pt"
   height="1195.000000pt"
   viewBox="0 0 860.000000 1195.000000"
   preserveAspectRatio="xMidYMid meet"
   id="svg20"
   sodipodi:docname="BW_LOGO_mit_NBG_sw.svg"
   inkscape:version="1.4.2 (ebf0e940, 2025-05-08)"
   xmlns:inkscape="http://www.inkscape.org/namespaces/inkscape"
   xmlns:sodipodi="http://sodipodi.sourceforge.net/DTD/sodipodi-0.dtd"
   xmlns="http://www.w3.org/2000/svg"
   xmlns:svg="http://www.w3.org/2000/svg">
  <defs
     id="defs20" />
  <sodipodi:namedview
     id="namedview20"
     pagecolor="#ffffff"
     bordercolor="#000000"
     borderopacity="0.25"
     inkscape:showpageshadow="2"
     inkscape:pageopacity="0.0"
     inkscape:pagecheckerboard="0"
     inkscape:deskcolor="#d1d1d1"
     inkscape:document-units="pt"
     inkscape:zoom="0.35076382"
     inkscape:cx="612.94805"
     inkscape:cy="977.86596"
     inkscape:window-width="1440"
     inkscape:window-height="847"
     inkscape:window-x="0"
     inkscape:window-y="25"
     inkscape:window-maximized="1"
     inkscape:current-layer="svg20" />
  <g
     transform="translate(0.000000,1195.000000) scale(0.100000,-0.100000)"
     fill="#000000"
     stroke="none"
     id="g20">
    <path
       d="M10 6655 l0 -5295 4293 0 4292 0 -3 5295 -2 5295 -4290 0 -4290 0 0 -5295z m8400 1390 l0 -3725 -885 0 c-878 0 -885 0 -885 -20 0 -24 1 -24 -42 -5 -58 24 -229 36 -363 26 -193 -15 -293 -56 -382 -156 l-49 -55 -32 105 -32 106 -1188 1 c-1439 3 -1410 3 -1497 -15 -69 -15 -154 -49 -206 -83 -26 -17 -27 -16 -75 16 -26 19 -78 43 -114 54 -63 20 -94 21 -836 24 -761 3 -772 2 -777 -17 -5 -19 -6 -19 -53 -3 -41 13 -110 17 -426 20 l-378 3 0 3725 0 3724 4110 0 4110 0 0 -3725z m-4955 -3900 c73 -20 131 -74 150 -137 8 -29 15 -71 15 -95 l0 -43 -124 0 c-121 0 -125 1 -132 23 -15 51 -41 62 -144 62 -77 0 -100 -4 -123 -19 -50 -34 -57 -60 -57 -230 0 -228 13 -252 151 -263 113 -10 167 23 172 105 l2 37 -82 3 -83 3 0 84 0 85 210 0 210 0 0 -135 c0 -298 -50 -365 -286 -384 -129 -10 -311 1 -372 22 -149 52 -182 132 -182 443 0 167 3 201 21 260 26 87 82 145 161 170 106 33 386 38 493 9z m3082 4 c61 -12 109 -42 139 -87 24 -35 47 -149 42 -203 l-3 -34 -125 0 -125 0 -6 38 c-10 61 -27 71 -126 76 -148 6 -163 -15 -163 -229 0 -144 9 -200 36 -228 34 -33 214 -33 236 0 7 11 15 47 21 98 2 12 24 15 127 15 l125 0 -1 -80 c-1 -96 -16 -145 -56 -191 -66 -75 -204 -102 -427 -84 -151 12 -219 39 -262 105 -45 66 -54 129 -54 360 0 174 3 220 18 268 18 59 77 137 103 137 8 0 14 4 14 8 0 13 99 36 190 42 98 8 222 3 297 -11z m-5687 -10 c80 -32 117 -83 126 -175 13 -122 -25 -218 -96 -246 -25 -10 -25 -10 13 -23 51 -17 63 -29 83 -81 13 -34 16 -65 12 -144 -4 -86 -8 -105 -31 -139 -53 -79 -113 -91 -479 -91 l-268 0 0 461 0 461 303 -4 c229 -4 311 -8 337 -19z m920 -84 l0 -105 -210 0 -210 0 0 -80 0 -80 195 0 195 0 0 -85 0 -85 -195 0 -195 0 0 -85 0 -85 215 0 215 0 0 -105 0 -105 -340 0 -340 0 0 460 0 460 335 0 335 0 0 -105z m789 81 c110 -36 145 -111 140 -300 -4 -111 -6 -126 -29 -159 -16 -24 -44 -45 -80 -61 -40 -18 -48 -25 -31 -25 38 -1 99 -42 116 -77 11 -23 15 -65 15 -153 l0 -121 -125 0 -125 0 0 95 c0 88 -2 96 -25 120 -25 24 -31 25 -135 25 l-110 0 0 -120 0 -120 -130 0 -130 0 0 461 0 461 298 -4 c247 -4 306 -8 351 -22z m1351 0 c0 -25 117 -656 123 -662 2 -2 41 152 88 341 l84 345 131 0 131 0 6 -37 c7 -40 52 -238 116 -503 l38 -155 11 55 c6 30 37 187 68 348 l58 292 124 0 125 0 -6 -32 c-3 -18 -24 -116 -47 -218 -23 -102 -47 -214 -55 -250 -7 -36 -31 -145 -52 -242 l-38 -178 -182 0 c-159 0 -183 2 -183 16 0 8 -16 88 -36 177 -42 190 -74 339 -74 350 0 4 -4 7 -8 7 -4 0 -16 -37 -26 -82 -30 -138 -65 -288 -88 -380 l-22 -88 -176 0 -176 0 -17 83 c-15 78 -30 146 -127 587 -23 102 -44 200 -47 218 l-6 32 132 0 c131 0 131 0 131 -24z m1725 -33 c9 -32 34 -114 55 -183 39 -127 82 -268 146 -477 19 -65 39 -131 45 -147 18 -58 20 -57 -118 -54 l-127 3 -20 78 -21 77 -159 -2 -160 -3 -24 -77 -23 -78 -130 0 c-71 0 -129 3 -129 7 0 8 26 96 66 223 39 125 181 602 194 648 l11 42 189 0 189 0 16 -57z m1445 -113 l0 -170 155 0 155 0 0 170 0 170 125 0 125 0 0 -460 0 -460 -125 0 -125 0 0 180 0 180 -155 0 -155 0 0 -180 0 -180 -125 0 -125 0 0 460 0 460 125 0 125 0 0 -170z m1350 60 l0 -110 -120 0 -120 0 0 -350 0 -350 -125 0 -125 0 0 350 0 350 -120 0 -120 0 0 110 0 110 365 0 365 0 0 -110z m-7363 -1030 c179 -19 262 -72 303 -195 20 -59 22 -82 18 -194 -5 -145 -19 -189 -76 -238 -20 -18 -59 -40 -87 -50 l-50 -16 65 -16 c85 -20 139 -71 159 -151 33 -127 11 -348 -43 -426 -80 -119 -190 -137 -801 -132 l-360 3 -3 700 c-1 385 0 706 3 713 6 15 728 17 872 2z m1400 -30 c7 -19 42 -134 78 -255 37 -121 79 -263 95 -315 72 -236 153 -503 181 -595 17 -55 37 -120 45 -144 28 -87 39 -82 -178 -79 l-193 3 -17 50 c-9 28 -27 83 -39 123 l-22 72 -248 0 -248 0 -16 -57 c-9 -32 -26 -88 -37 -125 l-20 -68 -194 0 -194 0 0 23 c0 23 42 168 195 672 100 329 129 424 135 450 17 64 80 266 85 276 4 6 114 8 293 7 l286 -3 13 -35z m660 -37 c19 -43 52 -116 73 -163 73 -165 140 -300 150 -300 5 0 12 10 16 23 4 12 43 96 87 187 43 91 97 202 118 248 l40 82 219 0 c122 0 220 -4 220 -9 0 -12 -221 -409 -372 -669 -26 -45 -48 -84 -48 -86 0 -3 -20 -39 -45 -80 l-45 -77 0 -254 0 -255 -195 0 -195 0 0 252 0 251 -34 61 c-18 34 -57 106 -86 161 -29 55 -64 117 -77 137 -12 21 -23 40 -23 42 0 2 -17 35 -38 73 -42 75 -103 187 -165 303 -22 41 -46 84 -53 95 -8 11 -14 27 -14 37 0 17 16 18 215 18 l216 0 36 -77z m2033 -83 l0 -160 -320 0 -320 0 0 -125 0 -125 305 0 305 0 0 -135 0 -135 -305 0 -305 0 0 -135 0 -135 330 0 330 0 0 -160 0 -160 -525 0 -525 0 0 715 0 715 515 0 515 0 0 -160z m1085 150 c225 -22 328 -98 364 -268 16 -74 14 -326 -2 -389 -25 -97 -84 -155 -192 -191 l-58 -20 54 -11 c79 -17 129 -49 164 -105 l30 -49 3 -194 4 -193 -196 0 -196 0 0 141 c0 223 -19 239 -275 239 l-155 0 0 -190 0 -190 -195 0 -195 0 0 715 0 715 373 0 c204 0 417 -5 472 -10z m1215 -12 c5 -13 93 -248 196 -523 102 -275 190 -509 195 -520 10 -21 4 644 -7 918 l-7 147 197 0 196 0 0 -715 0 -715 -327 2 -326 3 -49 130 c-26 72 -87 236 -134 365 -163 447 -207 565 -217 575 -6 6 -7 -47 -3 -145 3 -85 9 -329 12 -542 l7 -388 -192 0 -191 0 0 715 0 715 320 0 320 0 10 -22z"
       id="path1" />
    <path
       d="M2965 11636 c-79 -34 -104 -106 -89 -260 14 -161 9 -221 -29 -331 -123 -352 -107 -702 44 -984 10 -19 19 -39 19 -43 0 -5 9 -27 20 -51 45 -98 96 -268 87 -291 -12 -31 -74 -11 -137 44 -52 45 -155 111 -240 154 -123 63 -252 141 -495 302 -126 83 -268 171 -315 194 -47 23 -97 48 -111 56 -102 53 -327 122 -430 131 -84 7 -127 -1 -161 -31 -25 -21 -28 -30 -28 -90 0 -112 51 -312 124 -484 15 -35 65 -142 111 -238 47 -96 85 -178 85 -181 0 -19 111 -227 146 -273 52 -69 189 -203 316 -310 54 -45 113 -103 133 -130 46 -63 78 -136 71 -164 -8 -33 -68 -61 -201 -95 -66 -16 -154 -41 -195 -55 -41 -13 -111 -34 -155 -47 -86 -23 -587 -185 -620 -199 -11 -5 -38 -14 -60 -20 -140 -41 -378 -142 -447 -191 -77 -55 -104 -105 -93 -177 24 -158 147 -260 400 -330 126 -35 178 -45 362 -67 173 -20 268 -49 471 -141 295 -135 396 -164 630 -184 131 -12 220 -39 257 -80 14 -16 12 -22 -24 -76 -33 -51 -161 -294 -161 -308 0 -2 -16 -39 -35 -80 -19 -42 -35 -81 -35 -86 0 -6 -4 -18 -10 -28 -13 -22 -70 -151 -70 -157 0 -28 -209 -450 -282 -570 -79 -129 -113 -200 -133 -280 -29 -114 -4 -184 82 -226 41 -20 62 -23 143 -22 148 2 292 41 473 127 245 117 396 166 617 200 58 10 122 24 143 32 20 7 41 14 46 14 5 0 14 -28 21 -62 6 -35 27 -108 45 -163 22 -69 38 -145 50 -240 51 -431 75 -525 163 -634 61 -75 148 -99 243 -66 56 19 109 47 109 57 0 5 6 8 13 8 17 0 65 62 98 129 28 56 52 138 84 286 39 182 93 321 163 420 44 63 133 155 148 155 7 0 40 -33 75 -72 35 -40 76 -86 91 -102 15 -15 28 -31 28 -35 0 -14 120 -101 186 -135 154 -78 238 -66 293 41 66 131 74 299 28 603 -19 122 -28 202 -24 206 3 3 42 -6 88 -21 128 -40 266 -70 479 -104 245 -40 375 -65 470 -91 357 -98 479 -120 669 -120 117 0 145 4 203 24 77 27 111 51 147 104 23 33 26 47 26 122 0 68 -5 95 -23 135 -67 143 -55 128 -257 315 -44 40 -147 137 -230 215 -82 77 -177 165 -210 195 -33 30 -85 78 -115 106 -30 29 -82 77 -114 106 -90 81 -128 119 -124 123 2 3 60 14 129 25 68 12 149 25 179 30 63 11 250 40 460 70 494 70 519 77 735 191 165 87 234 109 340 109 107 0 208 16 253 39 112 57 180 195 158 317 -7 35 -86 134 -108 134 -5 0 -24 11 -42 25 -18 14 -35 25 -38 25 -4 0 -62 32 -130 71 -211 121 -354 173 -658 239 -230 50 -485 119 -630 170 -96 34 -236 79 -310 100 -201 59 -196 54 -113 94 38 19 89 46 114 62 24 16 56 35 71 44 34 19 56 36 188 142 139 112 276 206 365 252 294 151 370 227 370 371 0 59 -5 78 -28 118 -49 83 -109 115 -357 191 -173 53 -251 67 -403 73 -183 8 -280 -6 -452 -61 -5 -2 -14 -5 -20 -6 -5 -2 -39 -16 -75 -33 -112 -51 -274 -117 -287 -117 -21 0 -15 43 19 142 32 93 32 93 33 313 1 250 4 266 85 495 51 144 51 145 51 268 -1 209 -52 361 -137 402 -40 20 -45 20 -109 5 -258 -60 -416 -161 -557 -357 -92 -129 -166 -214 -228 -265 -36 -29 -69 -53 -73 -53 -4 0 -40 -21 -80 -47 -109 -72 -249 -141 -301 -148 -35 -6 -57 -3 -84 9 -38 17 -45 26 -115 156 -32 61 -113 178 -137 200 -3 3 -25 34 -49 70 -25 36 -48 67 -53 68 -4 2 -8 8 -8 14 0 19 -116 164 -190 239 -113 112 -318 239 -475 294 -27 9 -59 21 -70 26 -68 30 -227 38 -280 15z m310 -159 c101 -41 215 -116 274 -181 25 -27 98 -104 162 -171 120 -127 217 -248 258 -325 58 -107 118 -187 199 -268 149 -147 148 -144 65 -322 -35 -76 -60 -151 -84 -250 -61 -264 -71 -284 -104 -221 -24 47 -129 173 -223 268 -73 74 -97 106 -146 200 -32 62 -80 137 -106 168 -95 107 -111 137 -184 327 -12 31 -25 61 -30 65 -15 14 1 -307 18 -382 10 -38 26 -106 36 -150 22 -91 107 -355 120 -370 4 -5 18 -38 29 -72 27 -81 27 -180 0 -298 -12 -49 -27 -118 -34 -153 -7 -35 -15 -65 -17 -67 -3 -3 -39 19 -80 48 -124 85 -185 176 -233 347 -15 52 -39 124 -55 160 -15 36 -47 108 -70 160 -23 52 -61 147 -84 210 -42 112 -44 120 -55 295 -10 159 -10 189 5 255 9 41 22 105 30 143 7 37 15 71 17 75 14 22 40 227 46 356 6 139 8 150 30 167 37 30 120 25 216 -14z m2443 -208 c121 -42 112 -317 -20 -613 -31 -68 -32 -78 -38 -246 -6 -147 -12 -197 -40 -315 -18 -77 -45 -165 -60 -195 -16 -30 -67 -98 -114 -150 -47 -52 -86 -100 -86 -105 0 -27 -55 -87 -110 -120 -157 -95 -352 -133 -411 -79 -18 16 -20 26 -15 67 6 55 42 123 135 256 89 127 169 252 215 336 21 39 42 75 47 80 52 66 219 543 219 626 0 25 -63 -47 -125 -141 -34 -52 -88 -127 -121 -166 -32 -39 -72 -90 -89 -113 -16 -23 -48 -66 -71 -94 -22 -29 -96 -123 -163 -210 -172 -220 -268 -316 -348 -346 -62 -23 -63 -23 -95 -4 -21 11 -43 38 -60 72 -24 47 -28 66 -28 140 0 47 7 110 14 139 17 63 92 199 153 276 50 65 170 157 228 176 61 20 166 74 221 115 57 43 185 176 178 186 -2 4 3 9 11 12 7 3 32 39 55 80 66 121 221 254 381 327 50 22 92 25 137 9z m-4175 -940 c38 -23 103 -67 145 -99 43 -32 138 -94 212 -137 74 -43 176 -110 225 -149 156 -122 276 -196 580 -359 51 -27 158 -98 260 -172 98 -72 143 -99 220 -137 165 -80 268 -166 314 -261 19 -38 26 -71 29 -135 2 -47 0 -95 -5 -108 l-9 -23 -35 28 c-30 24 -93 79 -233 206 -104 95 -301 221 -384 247 -45 14 -181 66 -277 105 -49 20 -94 38 -100 39 -5 1 -27 10 -49 19 -21 9 -40 17 -42 17 -2 0 -74 34 -160 75 -86 42 -159 74 -161 71 -8 -7 154 -201 223 -267 103 -98 226 -187 396 -285 352 -202 339 -193 322 -220 -28 -42 -84 -49 -279 -33 l-162 12 -54 -27 c-54 -29 -145 -44 -192 -32 -14 3 -45 33 -75 73 -66 89 -160 174 -336 303 -142 104 -250 231 -289 340 -8 25 -36 104 -62 175 -25 72 -64 180 -85 241 -22 61 -61 166 -89 232 -70 171 -77 240 -29 292 30 32 93 21 181 -31z m5244 -509 c255 -41 355 -71 416 -128 78 -73 5 -142 -342 -319 -206 -106 -321 -178 -412 -261 -100 -91 -126 -103 -283 -128 -112 -18 -225 -55 -271 -89 -99 -74 -380 -157 -645 -190 -142 -17 -210 -19 -210 -6 0 9 52 51 64 51 3 0 24 13 48 29 24 15 75 45 113 66 277 149 462 290 508 387 20 43 38 126 27 133 -4 2 -24 -14 -46 -36 -75 -78 -222 -163 -402 -233 -168 -66 -368 -116 -459 -116 l-43 0 0 83 c0 60 4 89 16 106 26 36 126 76 264 105 255 54 315 84 399 198 64 88 110 124 250 193 292 146 685 206 1008 155z m-2107 -740 l0 -510 510 0 510 0 0 -490 0 -490 -510 0 -510 0 0 -520 0 -520 -490 0 -490 0 0 520 0 520 -520 0 -520 0 0 490 0 490 520 0 520 0 0 510 0 510 490 0 490 0 0 -510z m1662 -584 c114 -23 203 -45 508 -126 63 -17 201 -46 305 -66 233 -43 331 -71 460 -134 55 -26 121 -56 148 -65 26 -9 70 -32 97 -51 27 -18 87 -52 134 -75 147 -72 198 -150 141 -217 -55 -65 -107 -81 -300 -92 -174 -10 -257 -33 -450 -125 -169 -81 -222 -96 -365 -106 -170 -12 -224 -22 -423 -80 -212 -61 -369 -88 -553 -96 -225 -9 -277 6 -277 85 0 34 9 51 50 104 61 76 82 116 91 171 6 36 13 45 47 62 37 19 67 20 400 26 390 7 388 6 550 70 75 30 204 66 305 86 l45 9 -80 19 c-72 18 -110 20 -385 17 -178 -2 -342 1 -392 8 -86 10 -303 60 -445 102 l-73 21 -2 76 c-4 153 4 316 18 343 12 24 55 46 119 62 41 10 209 -4 327 -28z m-3966 -71 c103 -32 136 -82 141 -213 4 -84 2 -101 -16 -129 -29 -46 -79 -57 -183 -42 -121 18 -382 6 -548 -25 -74 -14 -209 -37 -300 -51 -91 -15 -176 -29 -190 -32 l-25 -5 34 -28 c57 -48 135 -59 474 -69 292 -8 305 -9 377 -35 105 -38 164 -53 242 -61 84 -8 146 -39 173 -85 16 -28 20 -53 20 -120 0 -223 -70 -245 -519 -161 -125 23 -242 48 -260 56 -17 7 -53 23 -79 34 -276 122 -552 203 -732 217 -49 3 -121 13 -160 20 -38 8 -108 19 -156 24 -48 5 -101 16 -117 24 -52 27 -102 81 -102 110 0 39 69 110 122 125 24 7 82 28 129 46 48 18 170 54 270 80 101 25 204 52 229 59 310 92 425 128 511 162 50 19 146 44 227 59 78 14 165 32 194 39 70 19 183 20 244 1z m2943 -961 c94 -27 150 -65 251 -167 91 -92 117 -126 199 -262 54 -91 90 -138 148 -192 41 -40 80 -73 86 -73 6 0 18 -7 27 -15 8 -8 69 -42 135 -76 284 -146 297 -156 521 -376 183 -179 264 -304 264 -402 0 -43 -29 -75 -77 -88 -43 -10 -331 42 -668 122 -60 14 -204 42 -320 61 -241 40 -459 86 -541 114 -138 48 -385 205 -444 283 -46 62 -80 137 -80 179 0 49 30 137 50 148 10 5 33 7 52 3 31 -6 222 -86 243 -103 41 -31 218 -113 300 -138 177 -55 417 -112 530 -126 61 -7 111 -12 113 -11 6 5 -137 114 -177 135 -37 18 -213 86 -246 94 -16 4 -45 16 -120 49 -68 30 -137 76 -200 134 -37 34 -91 73 -102 73 -4 1 -93 58 -198 128 -119 81 -199 141 -213 163 -22 32 -23 42 -20 149 2 73 8 122 17 135 16 25 90 57 151 66 91 13 265 9 319 -7z m-2097 -65 c32 -8 38 -14 38 -37 0 -39 -35 -160 -82 -282 -64 -168 -83 -205 -154 -295 -113 -144 -145 -208 -282 -565 -3 -8 10 3 29 25 18 22 41 47 50 55 9 8 50 53 90 100 41 47 108 119 149 161 55 57 104 124 186 255 61 99 124 204 141 234 17 30 58 103 92 162 33 59 61 112 61 118 0 5 4 10 9 10 31 0 26 -340 -9 -690 -15 -139 -22 -155 -86 -191 -79 -45 -137 -101 -171 -166 -42 -78 -88 -221 -113 -346 -11 -56 -24 -111 -29 -123 -9 -20 -66 -43 -123 -50 -207 -26 -336 -64 -442 -132 -75 -47 -188 -93 -290 -116 -35 -9 -102 -31 -149 -51 -97 -40 -148 -44 -194 -15 -85 51 -83 171 3 290 18 25 66 80 107 123 94 99 143 185 229 401 89 222 262 562 374 736 12 19 43 85 69 147 67 160 135 229 255 254 43 10 191 2 242 -12z m541 -997 c49 -84 43 -273 -19 -641 -24 -146 -34 -234 -33 -305 0 -85 2 -97 12 -76 7 14 44 84 84 155 60 109 86 173 162 400 76 228 121 401 121 469 0 5 33 6 74 4 88 -6 128 -26 171 -87 28 -40 30 -49 33 -154 4 -109 -16 -233 -38 -247 -4 -3 -40 -73 -80 -155 -39 -83 -83 -172 -97 -200 -40 -76 -85 -159 -93 -170 -20 -27 -73 -191 -99 -303 -42 -180 -110 -356 -164 -424 -21 -27 -118 -68 -159 -68 -61 0 -92 35 -116 132 -22 90 -54 266 -72 393 -18 135 -126 590 -150 635 -43 80 55 373 161 484 29 31 255 180 279 185 3 1 13 -12 23 -27z m937 -61 c51 -53 96 -192 181 -556 16 -70 22 -137 26 -297 l5 -206 -27 -27 c-21 -22 -33 -26 -60 -22 -41 7 -134 73 -166 119 -13 18 -39 46 -58 63 -113 97 -191 178 -197 201 -3 13 15 57 56 127 85 150 91 182 84 402 -3 99 -2 185 3 190 12 15 75 44 97 44 11 1 36 -16 56 -38z"
       id="path2" />
    <path
       d="M460 3875 l0 -75 119 0 c136 0 146 5 146 76 0 65 -17 73 -152 74 l-113 0 0 -75z"
       id="path3" />
    <path
       d="M460 3535 l0 -87 125 4 c78 2 128 7 136 15 19 19 23 105 6 128 -14 18 -29 20 -141 23 l-126 4 0 -87z"
       id="path4" />
    <path
       d="M2170 3820 l0 -120 115 0 c146 0 155 7 155 120 0 67 -3 79 -23 98 -21 20 -34 22 -135 22 l-112 0 0 -120z"
       id="path5" />
    <path
       d="M5430 3947 c0 -4 -20 -76 -44 -159 -23 -84 -46 -165 -50 -180 l-6 -28 106 0 c93 0 105 2 100 16 -3 9 -9 28 -12 42 -4 15 -24 90 -46 167 -36 125 -48 162 -48 142z"
       id="path6" />
    <path
       d="M580 2584 l0 -126 184 4 c178 3 185 4 210 27 30 28 42 92 29 148 -14 64 -46 73 -250 73 l-173 0 0 -126z"
       id="path7" />
    <path
       d="M582 2058 l3 -133 175 0 c198 0 229 7 254 60 19 39 21 99 5 144 -19 55 -46 61 -254 61 l-186 0 3 -132z"
       id="path8" />
    <path
       d="M2132 2592 c-17 -64 -50 -182 -72 -262 -21 -80 -44 -157 -49 -172 l-9 -28 163 0 c90 0 166 4 169 8 3 5 -8 51 -24 103 -34 111 -120 414 -127 447 -3 12 -8 22 -12 22 -3 0 -21 -53 -39 -118z"
       id="path9" />
    <path
       d="M5790 2505 l0 -185 179 0 c216 0 234 6 251 83 17 80 13 175 -10 222 -28 57 -59 65 -259 65 l-161 0 0 -185z"
       id="path10" />
    <path
       d="M1594 1257 c-3 -8 -4 -39 -2 -68 l3 -54 65 0 65 0 0 65 0 65 -63 3 c-47 2 -64 -1 -68 -11z"
       id="path11" />
    <path
       d="M1874 1257 c-3 -8 -4 -39 -2 -68 l3 -54 65 0 65 0 0 65 0 65 -63 3 c-47 2 -64 -1 -68 -11z"
       id="path12" />
    <path
       d="M7730 1014 c-68 -9 -164 -51 -204 -90 -16 -16 -41 -54 -55 -84 l-26 -55 0 -275 0 -275 27 -59 c34 -71 75 -109 148 -136 146 -54 472 -52 597 5 108 50 143 146 143 389 l0 146 -230 0 -230 0 0 -95 0 -95 96 0 97 0 -7 -52 c-9 -68 -21 -87 -61 -104 -45 -19 -195 -19 -240 0 -59 25 -69 58 -73 253 -5 216 8 274 66 299 50 22 215 24 257 4 17 -8 36 -30 44 -47 l15 -33 134 0 135 0 -7 61 c-7 62 -34 139 -48 139 -5 0 -8 7 -8 15 0 8 -9 19 -19 25 -11 5 -25 16 -33 23 -31 30 -94 40 -288 42 -107 2 -211 1 -230 -1z"
       id="path13" />
    <path
       d="M190 510 l0 -500 135 0 135 0 1 383 0 382 40 -110 c76 -206 96 -260 170 -457 l73 -198 228 0 228 0 0 500 0 500 -135 0 -135 0 -1 -377 c0 -333 -2 -374 -14 -343 -8 19 -71 189 -141 378 l-127 342 -229 0 -228 0 0 -500z"
       id="path14" />
    <path
       d="M1372 603 c3 -367 5 -412 21 -448 24 -52 53 -83 102 -105 77 -36 128 -43 305 -44 157 -1 182 1 241 22 75 26 126 67 160 132 l24 45 3 403 3 402 -130 0 -131 0 0 -339 c0 -186 -3 -353 -6 -370 -11 -53 -42 -66 -164 -66 -122 0 -145 9 -160 63 -6 22 -10 172 -10 375 l0 337 -131 0 -130 0 3 -407z"
       id="path15" />
    <path
       d="M2400 510 l0 -500 130 0 130 0 0 135 0 135 118 -1 c139 -1 159 -6 186 -42 17 -23 22 -46 24 -128 l4 -99 129 0 129 0 0 125 c0 174 -26 219 -139 248 l-56 13 50 17 c125 42 161 113 153 304 -6 132 -33 201 -93 242 -68 46 -116 51 -452 51 l-313 0 0 -500z m561 249 c22 -19 24 -28 24 -116 0 -132 -2 -133 -186 -133 l-139 0 0 135 0 135 138 0 c126 0 141 -2 163 -21z"
       id="path16" />
    <path
       d="M3400 510 l0 -500 130 0 130 0 1 388 0 387 33 -85 c56 -145 239 -639 251 -677 3 -10 58 -13 230 -13 l225 0 0 500 0 500 -130 0 -130 0 0 -382 -1 -383 -20 55 c-11 30 -29 78 -39 105 -27 76 -66 177 -80 210 -7 17 -16 41 -20 55 -8 23 -34 94 -94 253 -14 37 -28 72 -31 77 -4 6 -95 10 -231 10 l-224 0 0 -500z"
       id="path17" />
    <path
       d="M4570 509 l0 -500 348 3 348 3 49 26 c35 18 59 39 80 74 29 47 30 52 30 169 0 101 -3 126 -19 152 -21 36 -85 74 -122 74 -15 0 -24 6 -24 15 0 9 9 15 25 15 64 0 111 56 126 153 26 158 -35 279 -152 306 -25 6 -187 11 -366 11 l-323 0 0 -501z m550 278 c21 -10 26 -21 28 -62 7 -105 -9 -115 -183 -115 l-125 0 0 95 0 95 128 0 c82 0 136 -5 152 -13z m27 -380 c13 -13 18 -33 18 -78 0 -93 -12 -99 -186 -99 l-139 0 0 101 0 101 145 -4 c122 -2 147 -6 162 -21z"
       id="path18" />
    <path
       d="M5570 510 l0 -500 365 0 365 0 0 110 0 110 -235 0 -235 0 0 100 0 100 215 0 215 0 0 90 0 90 -215 0 -215 0 0 95 0 95 230 0 230 0 0 105 0 105 -360 0 -360 0 0 -500z"
       id="path19" />
    <path
       d="M6470 510 l0 -500 135 0 135 0 0 136 0 136 128 -4 c70 -3 134 -8 143 -12 35 -15 49 -61 49 -160 l0 -96 136 0 137 0 -5 128 c-4 110 -8 134 -27 169 -24 42 -63 67 -125 78 -45 9 -39 19 19 35 55 15 120 76 129 121 13 68 7 277 -11 321 -20 53 -81 113 -131 130 -25 8 -142 13 -374 15 l-338 4 0 -501z m546 264 c32 -9 44 -46 44 -139 0 -124 -2 -125 -180 -125 l-140 0 0 135 0 135 128 0 c70 0 137 -3 148 -6z"
       id="path20" />
  </g>
  <path
     style="fill:#ff0000;fill-opacity:1;stroke-width:2.85092"
     d="M 494.63482,650.01002 V 580.16245 H 424.78725 354.93968 V 516.01673 451.871 h 69.84757 69.84757 v -68.4221 -68.42211 h 64.14573 64.14572 v 68.42211 68.4221 h 68.42211 68.42211 v 64.14573 64.14572 h -68.42211 -68.42211 v 69.84757 69.84757 h -64.14572 -64.14573 z"
     id="path60"
     transform="scale(0.75)" />
  <path
     style="fill:#0000ff;fill-opacity:1;stroke-width:2.85092"
     d="m 771.03003,1029.7912 -3.42367,-13.5967 -184.2387,0.7922 c -181.71099,0.7813 -184.39339,0.8753 -195.51466,6.856 l -11.27597,6.0639 -11.5314,-6.0639 c -12.13606,-6.3818 -33.01777,-6.9192 -287.358029,-7.3947 l -50.60385,-0.095 V 520.29311 24.23283 H 573.03515 1118.9866 v 496.06028 496.06029 l -116.1751,0.1639 c -200.1779,0.2824 -193.86562,0.01 -209.43196,9.1569 -7.38713,4.3424 -14.66745,10.1044 -16.17849,12.8045 -2.23065,3.9859 -3.39123,2.3521 -6.17102,-8.6875 z m -262.7647,-33.92091 c 12.04027,-7.4009 19.08723,-21.51852 27.88888,-55.87152 8.33299,-32.52388 20.37317,-58.74939 32.15343,-70.03559 l 8.41937,-8.06628 12.40866,13.55527 c 18.84892,20.59061 22.36579,23.4929 37.76858,31.16844 23.49261,11.70685 35.12968,8.98813 42.7194,-9.98042 5.45509,-13.63365 6.14847,-50.37176 1.51438,-80.23915 -1.70765,-11.00609 -2.60999,-20.50593 -2.00517,-21.11073 0.60482,-0.60482 7.45097,0.81178 15.21366,3.14802 7.76269,2.33622 32.07819,7.44113 54.03448,11.34424 21.95625,3.90311 58.52274,11.51074 81.25883,16.90582 68.77303,16.31927 101.45043,16.16404 118.17587,-0.56143 5.99301,-5.99301 7.26466,-9.9612 7.26466,-22.66953 0,-9.70305 -2.07977,-19.48157 -5.61899,-26.41903 -3.47114,-6.80398 -30.13179,-33.73232 -69.74642,-70.44671 -50.80681,-47.08722 -63.11207,-59.86564 -59.23943,-61.51735 2.68836,-1.14664 35.03642,-6.60966 71.88458,-12.14005 84.07135,-12.61798 86.68157,-13.24718 120.8503,-29.13131 23.2869,-10.82546 32.3707,-13.48785 52.1792,-15.29331 28.0788,-2.55927 36.2965,-6.97353 43.8168,-23.53681 11.0408,-24.31713 4.7797,-35.45762 -31.3856,-55.84464 -34.9783,-19.71803 -47.8081,-24.43969 -101.3441,-37.29729 -38.52869,-9.25335 -134.54142,-38.07431 -137.84535,-41.37824 -0.55313,-0.55314 5.21571,-4.17803 12.81965,-8.05528 7.60392,-3.87728 26.62042,-16.89524 42.25884,-28.92887 15.63844,-12.03359 39.17431,-27.86008 52.30197,-35.16996 13.12764,-7.30987 28.23595,-17.53236 33.57402,-22.71665 8.73328,-8.48163 9.70559,-11.00501 9.70559,-25.18806 0,-13.48569 -1.16019,-16.92232 -8.03316,-23.7953 -12.38557,-12.38556 -57.73925,-26.07344 -92.41999,-27.89262 -34.11874,-1.78971 -53.54463,1.80426 -88.21423,16.32045 -14.57408,6.10218 -26.81485,10.77833 -27.20172,10.39147 -0.38687,-0.38687 0.71792,-5.10863 2.4551,-10.4928 1.73718,-5.38417 4.1496,-27.10875 5.36098,-48.27684 1.7229,-30.10682 3.81804,-43.09687 9.62189,-59.65596 5.48654,-15.65381 7.41528,-26.79441 7.4035,-42.76381 -0.0376,-51.115695 -14.92862,-63.925693 -55.10674,-47.405654 -24.87859,10.22933 -37.9154,20.514966 -56.1002,44.261334 -9.03947,11.80406 -20.10586,24.84242 -24.59204,28.97415 -13.23646,12.19075 -53.9932,34.32963 -64.08358,34.80994 -8.87164,0.4223 -10.40808,-1.24441 -35.0726,-38.04579 C 518.26132,94.529053 495.33606,71.748189 460.42377,54.522536 432.93758,40.960908 411.19492,35.914253 396.3285,39.645483 385.19514,42.43978 380.00872,56.98777 382.22993,79.192129 c 1.39299,13.925017 0.2145,23.869071 -5.48101,46.248401 -3.99055,15.68007 -8.05616,35.56524 -9.03471,44.18928 -2.29611,20.23558 2.73925,50.9961 11.89635,72.67394 12.25035,29.00058 22.00198,58.36063 20.03661,60.326 -1.02889,1.02888 -9.26387,-3.23727 -18.29997,-9.48034 -9.03611,-6.24306 -25.39681,-16.29725 -36.35709,-22.34266 -10.96028,-6.0454 -34.05274,-20.13059 -51.31658,-31.30041 -57.7046,-37.33529 -88.53431,-51.23282 -121.23494,-54.65071 -14.20361,-1.48457 -17.12145,-0.91315 -22.42658,4.39197 -5.03649,5.0365 -5.7937,8.20365 -4.3479,18.18596 4.82171,33.29077 16.94307,65.38063 48.05755,127.22664 10.71999,21.30804 16.71978,28.78173 45.36262,56.50642 33.25464,32.18864 40.55372,43.43031 32.83558,50.57172 -2.1633,2.00164 -28.9501,11.04732 -59.52623,20.10151 C 108.2656,492.67421 58.46337,511.756 45.948826,525.61339 c -4.21567,4.66801 -5.047113,8.78842 -3.873833,19.19773 3.058988,27.13926 30.000961,42.06645 94.642297,52.43651 28.19947,4.52387 42.34529,8.65853 71.79072,20.98349 37.19617,15.56916 52.64866,20.0432 80.86049,23.41191 17.15003,2.04781 35.28995,8.44383 33.72195,11.89008 -0.54521,1.19832 -6.91702,13.72499 -14.15956,27.83705 -7.24256,14.11206 -17.90662,37.20452 -23.69792,51.31658 -5.79129,14.11206 -21.96027,47.73816 -35.93104,74.72466 -13.97078,26.98651 -26.22106,54.19217 -27.22285,60.45701 -1.6156,10.10341 -0.84078,12.37129 6.8564,20.06846 7.41618,7.41619 10.80586,8.67783 23.31476,8.67783 20.71935,0 36.69848,-4.44638 74.18023,-20.64158 20.66336,-8.92826 44.78997,-16.72105 65.2524,-21.07629 17.85674,-3.80062 32.74585,-6.55295 33.08693,-6.11628 2.635,3.37358 13.34773,52.27455 17.03682,77.76883 2.49584,17.24807 5.89961,36.49179 7.56393,42.76381 3.57365,13.46735 14.86678,29.29858 23.46935,32.90041 8.27873,3.4662 24.06542,0.6394 35.42543,-6.34331 z"
     id="path61"
     transform="scale(0.75)" />
</svg>
